PathFileType	4	(X/Y/Z)	RBDS08static.trc
DataRate	CameraRate	NumFrames	NumMarkers	Units	OrigDataRate	OrigDataStartFrame	OrigNumFrames
150.000000	150.000000	4	48	mm	150.000000	112	150
Frame#	Time	L.Ankle			L.Ankle.Medial			L.ASIS			L.GTR			L.Heel.Bottom			L.Heel.Lateral			L.Heel.Top			L.HF			L.Iliac.Crest			L.Knee			L.Knee.Medial			L.MT1			L.MT2			L.MT5			L.PSIS			L.Shank.Bottom.Lateral			L.Shank.Bottom.Medial			L.Shank.Top.Lateral			L.Shank.Top.Medial			L.Thigh.Bottom.Lateral			L.Thigh.Bottom.Medial			L.Thigh.Top.Lateral			L.Thigh.Top.Medial			L.TT			R.Ankle			R.Ankle.Medial			R.ASIS			R.GTR			R.Heel.Bottom			R.Heel.Lateral			R.Heel.Top			R.HF			R.Iliac.Crest			R.Knee			R.Knee.Medial			R.MT1			R.MT2			R.MT5			R.PSIS			R.Shank.Bottom.Lateral			R.Shank.Bottom.Medial			R.Shank.Top.Lateral			R.Shank.Top.Medial			R.Thigh.Bottom.Lateral			R.Thigh.Bottom.Medial			R.Thigh.Top.Lateral			R.Thigh.Top.Medial			R.TT			
		X1	Y1	Z1	X2	Y2	Z2	X3	Y3	Z3	X4	Y4	Z4	X5	Y5	Z5	X6	Y6	Z6	X7	Y7	Z7	X8	Y8	Z8	X9	Y9	Z9	X10	Y10	Z10	X11	Y11	Z11	X12	Y12	Z12	X13	Y13	Z13	X14	Y14	Z14	X15	Y15	Z15	X16	Y16	Z16	X17	Y17	Z17	X18	Y18	Z18	X19	Y19	Z19	X20	Y20	Z20	X21	Y21	Z21	X22	Y22	Z22	X23	Y23	Z23	X24	Y24	Z24	X25	Y25	Z25	X26	Y26	Z26	X27	Y27	Z27	X28	Y28	Z28	X29	Y29	Z29	X30	Y30	Z30	X31	Y31	Z31	X32	Y32	Z32	X33	Y33	Z33	X34	Y34	Z34	X35	Y35	Z35	X36	Y36	Z36	X37	Y37	Z37	X38	Y38	Z38	X39	Y39	Z39	X40	Y40	Z40	X41	Y41	Z41	X42	Y42	Z42	X43	Y43	Z43	X44	Y44	Z44	X45	Y45	Z45	X46	Y46	Z46	X47	Y47	Z47	X48	Y48	Z48	

113	0.7466666666666667	756.7042236328125	103.3572616577148	1047.023315429688	774.2758178710938	108.3660507202148	1131.432006835938	902.1917114257813	1042.447998046875	1111.203002929688	832.6135864257813	938.9046020507813	1050.071044921875	671.0350952148438	44.90159225463867	1081.157836914063	702.1637573242188	63.27795791625977	1036.977783203125	685.3615112304688	94.75443267822266	1086.121337890625	787.2213134765625	480.7518005371094	1032.119506835938	828.9035034179688	1104.909423828125	1082.43310546875	792.0086669921875	540.115966796875	1039.03759765625	780.6737060546875	522.5090942382813	1152.131713867188	900.2610473632813	62.61410903930664	1116.4521484375	903.2840576171875	67.00632476806641	1075.318481445313	861.0926513671875	50.44797134399414	1009.409240722656	732.20703125	1059.57421875	1182.014282226563	745.099853515625	176.5683746337891	1038.380981445313	707.103271484375	177.3436889648438	1073.77294921875	740.1375122070313	256.52587890625	1026.696166992188	704.8267822265625	261.8104248046875	1066.66845703125	801.4479370117188	674.875244140625	1023.073974609375	742.8507080078125	669.5355224609375	1066.640869140625	794.8671264648438	785.2886352539063	1030.251586914063	742.3240356445313	779.6525268554688	1076.902709960938	836.5125122070313	453.2910461425781	1080.54541015625	737.1380004882813	108.3840179443359	1407.460205078125	762.7803955078125	114.9097061157227	1323.974975585938	909.017333984375	1038.550170898438	1347.117309570313	835.2153930664063	944.4459838867188	1405.339477539063	657.80859375	43.92026901245117	1371.128295898438	685.7020874023438	61.03676986694336	1412.81591796875	669.0252685546875	93.19647216796875	1369.069580078125	771.422607421875	487.2630310058594	1433.357055664063	840.4830932617188	1097.125610351563	1379.231689453125	775.4591674804688	543.224609375	1426.879272460938	764.5601196289063	522.050048828125	1314.19921875	884.5206909179688	60.72553253173828	1330.504516601563	890.9072875976563	68.69482421875	1376.71484375	852.4752197265625	56.64097213745117	1436.822875976563	735.2987060546875	1060.667846679688	1285.15576171875	716.8142700195313	192.1933746337891	1418.697509765625	690.2954711914063	196.3616485595703	1369.859985351563	707.8690795898438	272.6662292480469	1427.0224609375	686.6264038085938	275.9223022460938	1377.499389648438	791.648193359375	652.63330078125	1436.778198242188	732.0681762695313	654.590087890625	1393.23974609375	794.189697265625	763.14892578125	1434.726928710938	739.0385131835938	764.4991455078125	1392.705444335938	819.0526733398438	461.0599060058594	1386.09912109375	
114	0.7533333333333334	756.7176513671875	103.3519134521484	1047.025512695313	774.2714233398438	108.3637771606445	1131.431030273438	902.1752319335938	1042.4443359375	1111.212524414063	832.6148681640625	938.9102783203125	1050.070434570313	671.028564453125	44.90293121337891	1081.155883789063	702.164306640625	63.27691268920898	1036.980590820313	685.3535766601563	94.75493621826172	1086.122924804688	787.2171020507813	480.7466125488281	1032.119750976563	828.8771362304688	1104.885620117188	1082.429809570313	792.0159912109375	540.1138305664063	1039.040405273438	780.6639404296875	522.505859375	1152.138671875	900.2542114257813	62.60752487182617	1116.455200195313	903.2747192382813	67.00840759277344	1075.307495117188	861.0972290039063	50.44799423217773	1009.412475585938	732.201171875	1059.56689453125	1182.027465820313	745.0956420898438	176.5688781738281	1038.375	707.1018676757813	177.3434448242188	1073.7763671875	740.1414184570313	256.528076171875	1026.694213867188	704.8230590820313	261.8101501464844	1066.67431640625	801.4420166015625	674.8827514648438	1023.067810058594	742.8485107421875	669.5333862304688	1066.651489257813	794.8677368164063	785.2808837890625	1030.257934570313	742.3277587890625	779.6487426757813	1076.9013671875	836.51708984375	453.2909240722656	1080.546630859375	737.1265869140625	108.3875045776367	1407.482666015625	762.77294921875	114.9043426513672	1323.975219726563	909.0146484375	1038.551635742188	1347.1337890625	835.2174072265625	944.439208984375	1405.350708007813	657.8051147460938	43.91688537597656	1371.122680664063	685.7073974609375	61.04820251464844	1412.814086914063	669.0274047851563	93.18937683105469	1369.073852539063	771.416015625	487.2648010253906	1433.360961914063	840.4781494140625	1097.1171875	1379.257446289063	775.4566650390625	543.2197875976563	1426.8876953125	764.5556030273438	522.047119140625	1314.206665039063	884.50830078125	60.7348518371582	1330.501586914063	890.8987426757813	68.68833160400391	1376.704711914063	852.4800415039063	56.64178466796875	1436.815307617188	735.2888793945313	1060.653564453125	1285.174438476563	716.802734375	192.1909942626953	1418.704956054688	690.295654296875	196.3546752929688	1369.862915039063	707.8646850585938	272.6609497070313	1427.033813476563	686.620361328125	275.9151916503906	1377.5078125	791.6431884765625	652.6309814453125	1436.795532226563	732.0612182617188	654.5896606445313	1393.251220703125	794.18310546875	763.1470947265625	1434.743041992188	739.044921875	764.5014038085938	1392.728637695313	819.05078125	461.0553588867188	1386.104858398438	
115	0.76	756.7005615234375	103.3513946533203	1047.021728515625	774.2809448242188	108.3665542602539	1131.433227539063	902.1697998046875	1042.441040039063	1111.2158203125	832.6065673828125	938.901611328125	1050.083129882813	671.0328369140625	44.90323257446289	1081.158935546875	702.16259765625	63.26824188232422	1036.978515625	685.362060546875	94.75736236572266	1086.126953125	787.2182006835938	480.75048828125	1032.123657226563	828.8485107421875	1104.871948242188	1082.444946289063	792.008544921875	540.1113891601563	1039.04345703125	780.6693725585938	522.51123046875	1152.147338867188	900.2550659179688	62.6196174621582	1116.456420898438	903.269287109375	67.01091003417969	1075.317626953125	861.0941162109375	50.44927597045898	1009.405212402344	732.189208984375	1059.553344726563	1182.04296875	745.1013793945313	176.5657348632813	1038.388305664063	707.1005859375	177.3383331298828	1073.772705078125	740.1422119140625	256.5274047851563	1026.696044921875	704.822509765625	261.803955078125	1066.68115234375	801.4656372070313	674.8788452148438	1023.075866699219	742.8489990234375	669.5338134765625	1066.652709960938	794.8658447265625	785.2821044921875	1030.2578125	742.3175048828125	779.64990234375	1076.905517578125	836.510009765625	453.2926330566406	1080.547485351563	737.1303100585938	108.3915863037109	1407.484619140625	762.77685546875	114.8931732177734	1323.975952148438	909.0087280273438	1038.546630859375	1347.142944335938	835.20947265625	944.438232421875	1405.364013671875	657.8067626953125	43.90937805175781	1371.115844726563	685.7000122070313	61.03488159179688	1412.815185546875	669.029052734375	93.19009399414063	1369.078857421875	771.4165649414063	487.2563781738281	1433.369750976563	840.4817504882813	1097.110473632813	1379.261352539063	775.4523315429688	543.2249755859375	1426.894897460938	764.5439453125	522.0508422851563	1314.215209960938	884.5049438476563	60.72050476074219	1330.506469726563	890.9098510742188	68.6973876953125	1376.702514648438	852.477294921875	56.64052200317383	1436.820922851563	735.2804565429688	1060.648071289063	1285.189697265625	716.794677734375	192.1923217773438	1418.704711914063	690.2933349609375	196.3545227050781	1369.869873046875	707.8629760742188	272.6553039550781	1427.028442382813	686.6141967773438	275.9131469726563	1377.516235351563	791.6434326171875	652.630126953125	1436.795654296875	732.058349609375	654.5875244140625	1393.263916015625	794.1785278320313	763.142578125	1434.750244140625	739.0366821289063	764.4984130859375	1392.735961914063	819.05859375	461.0515747070313	1386.126342773438	
116	0.7666666666666667	756.7080688476563	103.3554992675781	1047.021362304688	774.2720947265625	108.3612976074219	1131.4345703125	902.1538696289063	1042.439331054688	1111.224365234375	832.5938720703125	938.89697265625	1050.079833984375	671.020751953125	44.90557479858398	1081.159057617188	702.1647338867188	63.26841354370117	1036.976440429688	685.3626098632813	94.74919128417969	1086.129272460938	787.2242431640625	480.7416381835938	1032.13330078125	828.8052978515625	1104.858520507813	1082.445678710938	792.0084838867188	540.1090698242188	1039.04541015625	780.661865234375	522.5049438476563	1152.1474609375	899.6995239257813	62.01351165771484	1116.508911132813	903.2777099609375	67.01229858398438	1075.317016601563	861.1031494140625	50.44301605224609	1009.416748046875	732.1806030273438	1059.542114257813	1182.057983398438	745.0928344726563	176.5718231201172	1038.385009765625	707.1004638671875	177.3424530029297	1073.773071289063	740.138427734375	256.5225830078125	1026.706665039063	704.8189697265625	261.8076782226563	1066.679443359375	801.4313354492188	674.8782348632813	1023.086608886719	742.8463134765625	669.5304565429688	1066.649169921875	794.8633422851563	785.2752075195313	1030.269653320313	742.3242797851563	779.6506958007813	1076.904052734375	836.5088500976563	453.2832641601563	1080.553833007813	737.1260375976563	108.3860168457031	1407.477172851563	762.7848510742188	114.8951568603516	1323.979736328125	909.0068359375	1038.550170898438	1347.143676757813	835.2055053710938	944.4407348632813	1405.364624023438	657.8082885742188	43.91251373291016	1371.123291015625	685.6990356445313	61.029296875	1412.810302734375	669.0308837890625	93.18765258789063	1369.075927734375	771.41259765625	487.2499084472656	1433.369018554688	840.4722900390625	1097.106323242188	1379.272583007813	775.4414672851563	543.2094116210938	1426.910522460938	764.5435180664063	522.0452880859375	1314.217407226563	884.5099487304688	60.72599411010742	1330.521118164063	890.8973999023438	68.68313598632813	1376.707153320313	852.4794921875	56.64120483398438	1436.82373046875	735.2767944335938	1060.64013671875	1285.204223632813	716.8067626953125	192.1827697753906	1418.7099609375	690.2926635742188	196.348876953125	1369.871215820313	707.8580932617188	272.6611022949219	1427.040893554688	686.6123046875	275.9111328125	1377.517456054688	791.646728515625	652.623291015625	1436.806884765625	732.056640625	654.5894775390625	1393.2783203125	794.1837768554688	763.1419067382813	1434.768798828125	739.0388793945313	764.4974365234375	1392.752563476563	819.0610961914063	461.0559692382813	1386.136962890625	
